<?xml version="1.0" encoding="UTF-8" standalone="no"?>
<svg xmlns="http://www.w3.org/2000/svg" width="1000" height="1000">
  <g
     transform="matrix(0.06798097,0,0,-0.06795787,-43.847723,1043.8328)"
     fill="#000000"
     stroke="none"
     id="g4">
    <path
       d="m 7865,15332 c -68,-33 -127,-92 -159,-161 -21,-45 -21,-55 -24,-738 l -3,-693 h -50 c -123,0 -512,-50 -743,-95 -971,-191 -1903,-647 -2644,-1293 l -74,-65 -482,480 c -529,528 -523,523 -650,531 -89,5 -163,-20 -229,-79 -96,-84 -132,-231 -87,-354 21,-57 47,-85 507,-546 l 484,-486 -77,-89 C 3108,11133 2699,10375 2476,9602 2364,9214 2286,8786 2264,8433 l -7,-112 -696,-3 -696,-3 -57,-28 c -61,-30 -105,-74 -140,-140 -20,-36 -23,-57 -23,-147 0,-90 3,-111 23,-147 35,-66 79,-110 140,-140 l 57,-28 695,-3 696,-3 12,-157 c 77,-962 406,-1902 955,-2722 131,-197 338,-467 446,-583 l 45,-48 -486,-487 c -542,-545 -532,-532 -532,-662 -1,-92 22,-147 90,-220 68,-73 140,-105 234,-105 130,1 118,-9 662,533 l 487,485 68,-60 c 648,-570 1498,-1016 2340,-1228 328,-82 701,-143 990,-161 l 112,-7 3,-696 3,-696 28,-57 c 30,-61 74,-105 140,-140 36,-20 57,-23 147,-23 90,0 111,3 147,23 66,35 110,79 140,140 l 28,57 3,696 3,696 112,7 c 380,24 831,109 1242,233 752,227 1507,645 2088,1156 l 68,60 487,-485 c 544,-542 532,-532 662,-533 94,0 166,32 234,105 68,73 91,128 90,220 0,130 10,117 -532,661 l -485,487 64,73 c 791,911 1287,2088 1380,3277 l 13,161 696,3 695,3 57,28 c 61,30 105,74 140,140 20,36 23,57 23,147 0,90 -3,111 -23,147 -35,66 -79,110 -140,140 l -57,28 -695,3 -696,3 -13,161 c -92,1169 -575,2333 -1341,3232 l -101,119 479,481 c 542,544 527,525 527,666 0,73 -4,93 -28,142 -57,116 -173,184 -303,176 -127,-8 -121,-3 -650,-531 l -482,-480 -74,65 c -733,639 -1665,1098 -2618,1288 -249,49 -638,100 -769,100 h -50 l -3,693 c -3,683 -3,693 -24,738 -31,67 -87,124 -156,159 -52,25 -73,30 -137,30 -63,0 -86,-5 -136,-28 z m -987,-4162 c 627,-115 1147,-566 1348,-1167 256,-763 -34,-1598 -706,-2036 -811,-528 -1889,-304 -2428,504 -285,426 -366,980 -216,1475 83,277 216,503 419,713 296,307 668,487 1100,535 96,10 373,-3 483,-24 z"
       id="path2" />
  </g>
</svg>
