<?xml version="1.0" encoding="UTF-8" standalone="no"?>
<svg
   xmlns:dc="http://purl.org/dc/elements/1.1/"
   xmlns:cc="http://creativecommons.org/ns#"
   xmlns:rdf="http://www.w3.org/1999/02/22-rdf-syntax-ns#"
   xmlns:svg="http://www.w3.org/2000/svg"
   xmlns="http://www.w3.org/2000/svg"
   xmlns:sodipodi="http://sodipodi.sourceforge.net/DTD/sodipodi-0.dtd"
   xmlns:inkscape="http://www.inkscape.org/namespaces/inkscape"
   version="1.1"
   id="Layer_1"
   sodipodi:docname="stopwatch.svg"
   inkscape:version="1.0.2-2 (e86c870879, 2021-01-15)">
  <metadata
     id="metadata54">
    <rdf:RDF>
      <cc:Work
         rdf:about="">
        <dc:format>image/svg+xml</dc:format>
        <dc:type
           rdf:resource="http://purl.org/dc/dcmitype/StillImage" />
      </cc:Work>
    </rdf:RDF>
  </metadata>
  <defs
     id="defs52" />
  <sodipodi:namedview
     pagecolor="#ffffff"
     bordercolor="#666666"
     borderopacity="1"
     objecttolerance="10"
     gridtolerance="10"
     guidetolerance="10"
     inkscape:pageopacity="0"
     inkscape:pageshadow="2"
     inkscape:window-width="1920"
     inkscape:window-height="976"
     id="namedview50"
     showgrid="false"
     inkscape:zoom="1"
     inkscape:cx="-113.13525"
     inkscape:cy="65.416674"
     inkscape:window-x="-8"
     inkscape:window-y="-8"
     inkscape:window-maximized="1"
     inkscape:current-layer="Layer_1" />
  <g
     id="g47"
     transform="matrix(0.50790812,0,0,0.50790812,-6.3248429,0)">
    <circle
       style="fill:#13829b"
       cx="148.51401"
       cy="164.11301"
       r="125.417"
       id="circle33" />
    <path
       style="fill:#28d2e4"
       d="m 148.514,38.696 c 5.164,0 10.252,0.319 15.252,0.925 V 7.5 h -30.504 v 32.121 c 4.999,-0.606 10.088,-0.925 15.252,-0.925 z"
       id="path35" />
    <circle
       style="fill:#ffdb77"
       cx="148.51401"
       cy="164.11301"
       r="88.682999"
       id="circle37" />
    <g
       id="g45">
      <path
         style="fill:#22313f"
         d="M 171.266,33.152 V 7.5 c 0,-4.143 -3.357,-7.5 -7.5,-7.5 h -30.504 c -4.143,0 -7.5,3.357 -7.5,7.5 V 33.152 C 63.273,43.976 15.597,98.578 15.597,164.112 c 0,73.291 59.626,132.917 132.917,132.917 73.291,0 132.917,-59.626 132.917,-132.917 0,-65.534 -47.676,-120.136 -110.165,-130.96 z M 140.762,31.423 V 15 h 15.504 v 16.423 c -4.731,-0.283 -10.334,-0.309 -15.504,0 z m 7.752,250.606 c -65.02,0 -117.917,-52.897 -117.917,-117.917 0,-60.343 45.564,-110.235 104.093,-117.102 9.296,-1.084 18.461,-1.071 27.647,0 58.529,6.866 104.093,56.759 104.093,117.102 10e-4,65.02 -52.897,117.917 -117.916,117.917 z"
         id="path39" />
      <path
         style="fill:#22313f"
         d="m 148.514,67.93 c -52.98,0 -96.183,43.116 -96.183,96.183 0,52.976 43.105,96.184 96.183,96.184 53.124,0 96.183,-43.266 96.183,-96.184 0,-52.982 -43.118,-96.183 -96.183,-96.183 z m 71.28,103.682 h 9.544 c -1.543,16.762 -8.192,32.065 -18.389,44.328 l -6.727,-6.728 c -2.93,-2.929 -7.679,-2.93 -10.607,-10e-4 -2.93,2.929 -2.93,7.678 -0.001,10.606 l 6.729,6.729 c -12.263,10.197 -27.565,16.847 -44.327,18.39 v -9.544 c 0,-4.143 -3.357,-7.5 -7.5,-7.5 -4.143,0 -7.5,3.357 -7.5,7.5 v 9.544 c -16.762,-1.543 -32.064,-8.193 -44.327,-18.39 l 6.728,-6.729 c 2.929,-2.929 2.929,-7.678 -0.001,-10.606 -2.928,-2.928 -7.677,-2.929 -10.606,10e-4 l -6.727,6.728 C 75.886,203.677 69.237,188.374 67.693,171.612 h 9.544 c 4.143,0 7.5,-3.357 7.5,-7.5 0,-4.143 -3.357,-7.5 -7.5,-7.5 h -9.544 c 1.543,-16.762 8.192,-32.064 18.389,-44.327 l 6.728,6.728 c 2.929,2.929 7.677,2.93 10.606,10e-4 2.93,-2.929 2.93,-7.678 0.001,-10.606 l -6.729,-6.729 C 108.951,91.482 124.253,84.833 141.015,83.29 v 9.544 c 0,4.143 3.357,7.5 7.5,7.5 4.143,0 7.5,-3.357 7.5,-7.5 V 83.29 c 16.762,1.543 32.065,8.192 44.327,18.389 l -6.729,6.729 c -2.929,2.929 -2.929,7.678 0.001,10.606 2.928,2.928 7.676,2.929 10.607,-10e-4 l 6.727,-6.728 c 10.197,12.262 16.846,27.565 18.389,44.327 h -9.544 c -4.143,0 -7.5,3.357 -7.5,7.5 0.001,4.143 3.357,7.5 7.501,7.5 z"
         id="path41" />
      <path
         style="fill:#22313f"
         d="m 167.984,131.767 -25,27.278 c -2.799,3.054 -2.592,7.798 0.462,10.597 1.439,1.319 3.255,1.971 5.065,1.971 2.029,0 4.052,-0.818 5.531,-2.433 l 25,-27.278 c 2.799,-3.054 2.592,-7.798 -0.462,-10.597 -3.051,-2.798 -7.795,-2.592 -10.596,0.462 z"
         id="path43" />
    </g>
  </g>
</svg>
